<svg viewBox="-4 100 220 1398"><defs><marker id="arrow" markerWidth="10" markerHeight="10" refX="0" refY="3" orient="auto" markerUnits="strokeWidth"> <path d="M0,1.5 L0,4.5 L3.5,3 z" fill="#000000" /> </marker> </defs><g><rect x="5.972000" y="861.149000" width="170.000000" height="61.389000" rx="24.000000" ry="24.000000" fill="#a47a4a" fill-opacity="1.00" /><rect x="10.972000" y="866.149000" width="160.000000" height="51.389000" rx="20.000000" ry="20.000000" fill="#cd8a63" fill-opacity="0.89" /><text x="90.972000" y="891.149000" text-anchor="middle" fill="#ffffff" fill-opacity="1.00" font-size="30px" font-family="Ubuntu Light" dy=".3em">Flatten</text></g><g><rect x="15.972000" y="658.369000" width="150.000000" height="61.389000" rx="24.000000" ry="24.000000" fill="#5151c0" fill-opacity="1.00" /><rect x="20.972000" y="663.369000" width="140.000000" height="51.389000" rx="20.000000" ry="20.000000" fill="#2a7fff" fill-opacity="1.00" /><text x="90.972000" y="688.369000" text-anchor="middle" fill="#ffffff" fill-opacity="1.00" font-size="30px" font-family="Ubuntu Light" dy=".3em">Conv2D</text></g><g><rect x="-4.028000" y="1063.929000" width="190.000000" height="61.389000" rx="24.000000" ry="24.000000" fill="#540023" fill-opacity="0.66" /><rect x="0.972000" y="1068.929000" width="180.000000" height="51.389000" rx="20.000000" ry="20.000000" fill="#d42068" fill-opacity="0.89" /><text x="90.972000" y="1093.929000" text-anchor="middle" fill="#ffffff" fill-opacity="1.00" font-size="30px" font-family="Ubuntu Light" dy=".3em">Dense256</text></g><g><rect x="-4.028000" y="1165.319000" width="190.000000" height="61.389000" rx="24.000000" ry="24.000000" fill="#540023" fill-opacity="0.66" /><rect x="0.972000" y="1170.319000" width="180.000000" height="51.389000" rx="20.000000" ry="20.000000" fill="#d42068" fill-opacity="0.89" /><text x="90.972000" y="1195.319000" text-anchor="middle" fill="#ffffff" fill-opacity="1.00" font-size="30px" font-family="Ubuntu Light" dy=".3em">Dense128</text></g><g><rect x="25.972000" y="151.389000" width="130.000000" height="61.389000" rx="24.000000" ry="24.000000" fill="#4d4d4d" fill-opacity="0.66" /><rect x="30.972000" y="156.389000" width="120.000000" height="51.389000" rx="20.000000" ry="20.000000" fill="#acacac" fill-opacity="0.89" /><text x="90.972000" y="181.389000" text-anchor="middle" fill="#ffffff" fill-opacity="1.00" font-size="30px" font-family="Ubuntu Light" dy=".3em">Input</text></g><g><rect x="15.972000" y="252.789000" width="150.000000" height="61.389000" rx="24.000000" ry="24.000000" fill="#5151c0" fill-opacity="1.00" /><rect x="20.972000" y="257.789000" width="140.000000" height="51.389000" rx="20.000000" ry="20.000000" fill="#2a7fff" fill-opacity="1.00" /><text x="90.972000" y="282.789000" text-anchor="middle" fill="#ffffff" fill-opacity="1.00" font-size="30px" font-family="Ubuntu Light" dy=".3em">Conv2D</text></g><g><rect x="5.972000" y="1368.095000" width="170.000000" height="61.389000" rx="24.000000" ry="24.000000" fill="#540023" fill-opacity="0.66" /><rect x="10.972000" y="1373.095000" width="160.000000" height="51.389000" rx="20.000000" ry="20.000000" fill="#d42068" fill-opacity="0.89" /><text x="90.972000" y="1398.095000" text-anchor="middle" fill="#ffffff" fill-opacity="1.00" font-size="30px" font-family="Ubuntu Light" dy=".3em">Dense10</text></g><g><rect x="-4.028000" y="962.539000" width="190.000000" height="61.389000" rx="24.000000" ry="24.000000" fill="#540023" fill-opacity="0.66" /><rect x="0.972000" y="967.539000" width="180.000000" height="51.389000" rx="20.000000" ry="20.000000" fill="#d42068" fill-opacity="0.89" /><text x="90.972000" y="992.539000" text-anchor="middle" fill="#ffffff" fill-opacity="1.00" font-size="30px" font-family="Ubuntu Light" dy=".3em">Dense512</text></g><g><rect x="5.972000" y="354.189000" width="170.000000" height="61.389000" rx="24.000000" ry="24.000000" fill="#006680" fill-opacity="1.00" /><rect x="10.972000" y="359.189000" width="160.000000" height="51.389000" rx="20.000000" ry="20.000000" fill="#00ffff" fill-opacity="1.00" /><text x="90.972000" y="384.189000" text-anchor="middle" fill="#000000" fill-opacity="1.00" font-size="30px" font-family="Ubuntu Light" dy=".3em">Dropout</text></g><g><rect x="5.972000" y="556.979000" width="170.000000" height="61.389000" rx="24.000000" ry="24.000000" fill="#006680" fill-opacity="1.00" /><rect x="10.972000" y="561.979000" width="160.000000" height="51.389000" rx="20.000000" ry="20.000000" fill="#00ffff" fill-opacity="1.00" /><text x="90.972000" y="586.979000" text-anchor="middle" fill="#000000" fill-opacity="1.00" font-size="30px" font-family="Ubuntu Light" dy=".3em">Dropout</text></g><g><rect x="15.972000" y="455.599000" width="150.000000" height="61.389000" rx="24.000000" ry="24.000000" fill="#5151c0" fill-opacity="1.00" /><rect x="20.972000" y="460.599000" width="140.000000" height="51.389000" rx="20.000000" ry="20.000000" fill="#2a7fff" fill-opacity="1.00" /><text x="90.972000" y="485.599000" text-anchor="middle" fill="#ffffff" fill-opacity="1.00" font-size="30px" font-family="Ubuntu Light" dy=".3em">Conv2D</text></g><g><rect x="5.972000" y="1266.709000" width="170.000000" height="61.389000" rx="24.000000" ry="24.000000" fill="#540023" fill-opacity="0.66" /><rect x="10.972000" y="1271.709000" width="160.000000" height="51.389000" rx="20.000000" ry="20.000000" fill="#d42068" fill-opacity="0.89" /><text x="90.972000" y="1296.709000" text-anchor="middle" fill="#ffffff" fill-opacity="1.00" font-size="30px" font-family="Ubuntu Light" dy=".3em">Dense64</text></g><g><rect x="5.972000" y="759.759000" width="170.000000" height="61.389000" rx="24.000000" ry="24.000000" fill="#006680" fill-opacity="1.00" /><rect x="10.972000" y="764.759000" width="160.000000" height="51.389000" rx="20.000000" ry="20.000000" fill="#00ffff" fill-opacity="1.00" /><text x="90.972000" y="789.759000" text-anchor="middle" fill="#000000" fill-opacity="1.00" font-size="30px" font-family="Ubuntu Light" dy=".3em">Dropout</text></g><path stroke-width="4" d="M90.972000,212.778000 C 90.972000 239.789000, 90.972000 212.778000, 90.972000 239.789000" stroke="black" fill="none" marker-end="url(#arrow)" /><text x="95.972000" y="222.778000" text-anchor="start" alignment-baseline="hanging" fill="#000000" font-size="20px" font-family="Ubuntu Light" dy=".3em">(28, 28, 1)</text><path stroke-width="4" d="M90.972000,314.178000 C 90.972000 341.189000, 90.972000 314.178000, 90.972000 341.189000" stroke="black" fill="none" marker-end="url(#arrow)" /><text x="95.972000" y="324.178000" text-anchor="start" alignment-baseline="hanging" fill="#000000" font-size="20px" font-family="Ubuntu Light" dy=".3em">(24, 24, 64)</text><path stroke-width="4" d="M90.972000,415.578000 C 90.972000 442.599000, 90.972000 415.578000, 90.972000 442.599000" stroke="black" fill="none" marker-end="url(#arrow)" /><text x="95.972000" y="324.178000" text-anchor="start" alignment-baseline="hanging" fill="#000000" font-size="20px" font-family="Ubuntu Light" dy=".3em">(24, 24, 64)</text><path stroke-width="4" d="M90.972000,516.988000 C 90.972000 543.979000, 90.972000 516.988000, 90.972000 543.979000" stroke="black" fill="none" marker-end="url(#arrow)" /><text x="95.972000" y="526.988000" text-anchor="start" alignment-baseline="hanging" fill="#000000" font-size="20px" font-family="Ubuntu Light" dy=".3em">(20, 20, 128)</text><path stroke-width="4" d="M90.972000,618.368000 C 90.972000 645.369000, 90.972000 618.368000, 90.972000 645.369000" stroke="black" fill="none" marker-end="url(#arrow)" /><text x="95.972000" y="526.988000" text-anchor="start" alignment-baseline="hanging" fill="#000000" font-size="20px" font-family="Ubuntu Light" dy=".3em">(20, 20, 128)</text><path stroke-width="4" d="M90.972000,719.758000 C 90.972000 746.759000, 90.972000 719.758000, 90.972000 746.759000" stroke="black" fill="none" marker-end="url(#arrow)" /><text x="95.972000" y="729.758000" text-anchor="start" alignment-baseline="hanging" fill="#000000" font-size="20px" font-family="Ubuntu Light" dy=".3em">(18, 18, 256)</text><path stroke-width="4" d="M90.972000,821.148000 C 90.972000 848.149000, 90.972000 821.148000, 90.972000 848.149000" stroke="black" fill="none" marker-end="url(#arrow)" /><text x="95.972000" y="729.758000" text-anchor="start" alignment-baseline="hanging" fill="#000000" font-size="20px" font-family="Ubuntu Light" dy=".3em">(18, 18, 256)</text><path stroke-width="4" d="M90.972000,922.538000 C 90.972000 949.539000, 90.972000 922.538000, 90.972000 949.539000" stroke="black" fill="none" marker-end="url(#arrow)" /><text x="95.972000" y="932.538000" text-anchor="start" alignment-baseline="hanging" fill="#000000" font-size="20px" font-family="Ubuntu Light" dy=".3em">(82944,)</text><path stroke-width="4" d="M90.972000,1023.928000 C 90.972000 1050.929000, 90.972000 1023.928000, 90.972000 1050.929000" stroke="black" fill="none" marker-end="url(#arrow)" /><text x="95.972000" y="1033.928000" text-anchor="start" alignment-baseline="hanging" fill="#000000" font-size="20px" font-family="Ubuntu Light" dy=".3em">(512,)</text><path stroke-width="4" d="M90.972000,1125.318000 C 90.972000 1152.319000, 90.972000 1125.318000, 90.972000 1152.319000" stroke="black" fill="none" marker-end="url(#arrow)" /><text x="95.972000" y="1135.318000" text-anchor="start" alignment-baseline="hanging" fill="#000000" font-size="20px" font-family="Ubuntu Light" dy=".3em">(256,)</text><path stroke-width="4" d="M90.972000,1226.708000 C 90.972000 1253.709000, 90.972000 1226.708000, 90.972000 1253.709000" stroke="black" fill="none" marker-end="url(#arrow)" /><text x="95.972000" y="1236.708000" text-anchor="start" alignment-baseline="hanging" fill="#000000" font-size="20px" font-family="Ubuntu Light" dy=".3em">(128,)</text><path stroke-width="4" d="M90.972000,1328.098000 C 90.972000 1355.095000, 90.972000 1328.098000, 90.972000 1355.095000" stroke="black" fill="none" marker-end="url(#arrow)" /><text x="95.972000" y="1338.098000" text-anchor="start" alignment-baseline="hanging" fill="#000000" font-size="20px" font-family="Ubuntu Light" dy=".3em">(64,)</text><text x="90.972000" y="1439.484000" text-anchor="middle" alignment-baseline="hanging" fill="#000000" font-size="20px" font-family="Ubuntu Light" dy=".3em">(10,)</text></svg>