<svg viewBox="89 100 220 2818"><defs><marker id="arrow" markerWidth="10" markerHeight="10" refX="0" refY="3" orient="auto" markerUnits="strokeWidth"> <path d="M0,1.5 L0,4.5 L3.5,3 z" fill="#000000" /> </marker> </defs><g><rect x="129.720000" y="1672.189000" width="110.000000" height="61.389000" rx="24.000000" ry="24.000000" fill="#008000" fill-opacity="0.66" /><rect x="134.720000" y="1677.189000" width="100.000000" height="51.389000" rx="20.000000" ry="20.000000" fill="#00ff00" fill-opacity="1.00" /><text x="184.720000" y="1702.189000" text-anchor="middle" fill="#000000" fill-opacity="1.00" font-size="30px" font-family="Ubuntu Light" dy=".3em">ReLU</text></g><g><rect x="119.720000" y="1368.089000" width="130.000000" height="61.389000" rx="24.000000" ry="24.000000" fill="#808000" fill-opacity="0.67" /><rect x="124.720000" y="1373.089000" width="120.000000" height="51.389000" rx="20.000000" ry="20.000000" fill="#ffff00" fill-opacity="1.00" /><text x="184.720000" y="1398.089000" text-anchor="middle" fill="#000000" fill-opacity="1.00" font-size="30px" font-family="Ubuntu Light" dy=".3em">Bnorm</text></g><g><rect x="99.720000" y="354.189000" width="170.000000" height="61.389000" rx="24.000000" ry="24.000000" fill="#006680" fill-opacity="1.00" /><rect x="104.720000" y="359.189000" width="160.000000" height="51.389000" rx="20.000000" ry="20.000000" fill="#00ffff" fill-opacity="1.00" /><text x="184.720000" y="384.189000" text-anchor="middle" fill="#000000" fill-opacity="1.00" font-size="30px" font-family="Ubuntu Light" dy=".3em">Dropout</text></g><g><rect x="99.720000" y="2483.329000" width="170.000000" height="61.389000" rx="24.000000" ry="24.000000" fill="#540023" fill-opacity="0.66" /><rect x="104.720000" y="2488.329000" width="160.000000" height="51.389000" rx="20.000000" ry="20.000000" fill="#d42068" fill-opacity="0.89" /><text x="184.720000" y="2513.329000" text-anchor="middle" fill="#ffffff" fill-opacity="1.00" font-size="30px" font-family="Ubuntu Light" dy=".3em">Dense64</text></g><g><rect x="109.720000" y="252.789000" width="150.000000" height="61.389000" rx="24.000000" ry="24.000000" fill="#5151c0" fill-opacity="1.00" /><rect x="114.720000" y="257.789000" width="140.000000" height="51.389000" rx="20.000000" ry="20.000000" fill="#2a7fff" fill-opacity="1.00" /><text x="184.720000" y="282.789000" text-anchor="middle" fill="#ffffff" fill-opacity="1.00" font-size="30px" font-family="Ubuntu Light" dy=".3em">Conv2D</text></g><g><rect x="129.720000" y="1976.379000" width="110.000000" height="61.389000" rx="24.000000" ry="24.000000" fill="#008000" fill-opacity="0.66" /><rect x="134.720000" y="1981.379000" width="100.000000" height="51.389000" rx="20.000000" ry="20.000000" fill="#00ff00" fill-opacity="1.00" /><text x="184.720000" y="2006.379000" text-anchor="middle" fill="#000000" fill-opacity="1.00" font-size="30px" font-family="Ubuntu Light" dy=".3em">ReLU</text></g><g><rect x="99.720000" y="2787.495000" width="170.000000" height="61.389000" rx="24.000000" ry="24.000000" fill="#540023" fill-opacity="0.66" /><rect x="104.720000" y="2792.495000" width="160.000000" height="51.389000" rx="20.000000" ry="20.000000" fill="#d42068" fill-opacity="0.89" /><text x="184.720000" y="2817.495000" text-anchor="middle" fill="#ffffff" fill-opacity="1.00" font-size="30px" font-family="Ubuntu Light" dy=".3em">Dense10</text></g><g><rect x="119.720000" y="151.389000" width="130.000000" height="61.389000" rx="24.000000" ry="24.000000" fill="#4d4d4d" fill-opacity="0.66" /><rect x="124.720000" y="156.389000" width="120.000000" height="51.389000" rx="20.000000" ry="20.000000" fill="#acacac" fill-opacity="0.89" /><text x="184.720000" y="181.389000" text-anchor="middle" fill="#ffffff" fill-opacity="1.00" font-size="30px" font-family="Ubuntu Light" dy=".3em">Input</text></g><g><rect x="109.720000" y="658.289000" width="150.000000" height="61.389000" rx="24.000000" ry="24.000000" fill="#5151c0" fill-opacity="1.00" /><rect x="114.720000" y="663.289000" width="140.000000" height="51.389000" rx="20.000000" ry="20.000000" fill="#2a7fff" fill-opacity="1.00" /><text x="184.720000" y="688.289000" text-anchor="middle" fill="#ffffff" fill-opacity="1.00" font-size="30px" font-family="Ubuntu Light" dy=".3em">Conv2D</text></g><g><rect x="129.720000" y="861.089000" width="110.000000" height="61.389000" rx="24.000000" ry="24.000000" fill="#008000" fill-opacity="0.66" /><rect x="134.720000" y="866.089000" width="100.000000" height="51.389000" rx="20.000000" ry="20.000000" fill="#00ff00" fill-opacity="1.00" /><text x="184.720000" y="891.089000" text-anchor="middle" fill="#000000" fill-opacity="1.00" font-size="30px" font-family="Ubuntu Light" dy=".3em">ReLU</text></g><g><rect x="89.720000" y="1570.789000" width="190.000000" height="61.389000" rx="24.000000" ry="24.000000" fill="#540023" fill-opacity="0.66" /><rect x="94.720000" y="1575.789000" width="180.000000" height="51.389000" rx="20.000000" ry="20.000000" fill="#d42068" fill-opacity="0.89" /><text x="184.720000" y="1600.789000" text-anchor="middle" fill="#ffffff" fill-opacity="1.00" font-size="30px" font-family="Ubuntu Light" dy=".3em">Dense512</text></g><g><rect x="89.720000" y="1874.999000" width="190.000000" height="61.389000" rx="24.000000" ry="24.000000" fill="#540023" fill-opacity="0.66" /><rect x="94.720000" y="1879.999000" width="180.000000" height="51.389000" rx="20.000000" ry="20.000000" fill="#d42068" fill-opacity="0.89" /><text x="184.720000" y="1904.999000" text-anchor="middle" fill="#ffffff" fill-opacity="1.00" font-size="30px" font-family="Ubuntu Light" dy=".3em">Dense256</text></g><g><rect x="99.720000" y="759.689000" width="170.000000" height="61.389000" rx="24.000000" ry="24.000000" fill="#006680" fill-opacity="1.00" /><rect x="104.720000" y="764.689000" width="160.000000" height="51.389000" rx="20.000000" ry="20.000000" fill="#00ffff" fill-opacity="1.00" /><text x="184.720000" y="789.689000" text-anchor="middle" fill="#000000" fill-opacity="1.00" font-size="30px" font-family="Ubuntu Light" dy=".3em">Dropout</text></g><g><rect x="109.720000" y="1063.889000" width="150.000000" height="61.389000" rx="24.000000" ry="24.000000" fill="#5151c0" fill-opacity="1.00" /><rect x="114.720000" y="1068.889000" width="140.000000" height="51.389000" rx="20.000000" ry="20.000000" fill="#2a7fff" fill-opacity="1.00" /><text x="184.720000" y="1093.889000" text-anchor="middle" fill="#ffffff" fill-opacity="1.00" font-size="30px" font-family="Ubuntu Light" dy=".3em">Conv2D</text></g><g><rect x="99.720000" y="1773.589000" width="170.000000" height="61.389000" rx="24.000000" ry="24.000000" fill="#006680" fill-opacity="1.00" /><rect x="104.720000" y="1778.589000" width="160.000000" height="51.389000" rx="20.000000" ry="20.000000" fill="#00ffff" fill-opacity="1.00" /><text x="184.720000" y="1803.589000" text-anchor="middle" fill="#000000" fill-opacity="1.00" font-size="30px" font-family="Ubuntu Light" dy=".3em">Dropout</text></g><g><rect x="99.720000" y="2077.769000" width="170.000000" height="61.389000" rx="24.000000" ry="24.000000" fill="#006680" fill-opacity="1.00" /><rect x="104.720000" y="2082.769000" width="160.000000" height="51.389000" rx="20.000000" ry="20.000000" fill="#00ffff" fill-opacity="1.00" /><text x="184.720000" y="2107.769000" text-anchor="middle" fill="#000000" fill-opacity="1.00" font-size="30px" font-family="Ubuntu Light" dy=".3em">Dropout</text></g><g><rect x="129.720000" y="2584.719000" width="110.000000" height="61.389000" rx="24.000000" ry="24.000000" fill="#008000" fill-opacity="0.66" /><rect x="134.720000" y="2589.719000" width="100.000000" height="51.389000" rx="20.000000" ry="20.000000" fill="#00ff00" fill-opacity="1.00" /><text x="184.720000" y="2614.719000" text-anchor="middle" fill="#000000" fill-opacity="1.00" font-size="30px" font-family="Ubuntu Light" dy=".3em">ReLU</text></g><g><rect x="129.720000" y="1266.689000" width="110.000000" height="61.389000" rx="24.000000" ry="24.000000" fill="#008000" fill-opacity="0.66" /><rect x="134.720000" y="1271.689000" width="100.000000" height="51.389000" rx="20.000000" ry="20.000000" fill="#00ff00" fill-opacity="1.00" /><text x="184.720000" y="1296.689000" text-anchor="middle" fill="#000000" fill-opacity="1.00" font-size="30px" font-family="Ubuntu Light" dy=".3em">ReLU</text></g><g><rect x="129.720000" y="455.589000" width="110.000000" height="61.389000" rx="24.000000" ry="24.000000" fill="#008000" fill-opacity="0.66" /><rect x="134.720000" y="460.589000" width="100.000000" height="51.389000" rx="20.000000" ry="20.000000" fill="#00ff00" fill-opacity="1.00" /><text x="184.720000" y="485.589000" text-anchor="middle" fill="#000000" fill-opacity="1.00" font-size="30px" font-family="Ubuntu Light" dy=".3em">ReLU</text></g><g><rect x="119.720000" y="962.489000" width="130.000000" height="61.389000" rx="24.000000" ry="24.000000" fill="#808000" fill-opacity="0.67" /><rect x="124.720000" y="967.489000" width="120.000000" height="51.389000" rx="20.000000" ry="20.000000" fill="#ffff00" fill-opacity="1.00" /><text x="184.720000" y="992.489000" text-anchor="middle" fill="#000000" fill-opacity="1.00" font-size="30px" font-family="Ubuntu Light" dy=".3em">Bnorm</text></g><g><rect x="89.720000" y="2179.159000" width="190.000000" height="61.389000" rx="24.000000" ry="24.000000" fill="#540023" fill-opacity="0.66" /><rect x="94.720000" y="2184.159000" width="180.000000" height="51.389000" rx="20.000000" ry="20.000000" fill="#d42068" fill-opacity="0.89" /><text x="184.720000" y="2209.159000" text-anchor="middle" fill="#ffffff" fill-opacity="1.00" font-size="30px" font-family="Ubuntu Light" dy=".3em">Dense128</text></g><g><rect x="99.720000" y="2686.109000" width="170.000000" height="61.389000" rx="24.000000" ry="24.000000" fill="#006680" fill-opacity="1.00" /><rect x="104.720000" y="2691.109000" width="160.000000" height="51.389000" rx="20.000000" ry="20.000000" fill="#00ffff" fill-opacity="1.00" /><text x="184.720000" y="2716.109000" text-anchor="middle" fill="#000000" fill-opacity="1.00" font-size="30px" font-family="Ubuntu Light" dy=".3em">Dropout</text></g><g><rect x="129.720000" y="2280.549000" width="110.000000" height="61.389000" rx="24.000000" ry="24.000000" fill="#008000" fill-opacity="0.66" /><rect x="134.720000" y="2285.549000" width="100.000000" height="51.389000" rx="20.000000" ry="20.000000" fill="#00ff00" fill-opacity="1.00" /><text x="184.720000" y="2310.549000" text-anchor="middle" fill="#000000" fill-opacity="1.00" font-size="30px" font-family="Ubuntu Light" dy=".3em">ReLU</text></g><g><rect x="99.720000" y="1165.289000" width="170.000000" height="61.389000" rx="24.000000" ry="24.000000" fill="#006680" fill-opacity="1.00" /><rect x="104.720000" y="1170.289000" width="160.000000" height="51.389000" rx="20.000000" ry="20.000000" fill="#00ffff" fill-opacity="1.00" /><text x="184.720000" y="1195.289000" text-anchor="middle" fill="#000000" fill-opacity="1.00" font-size="30px" font-family="Ubuntu Light" dy=".3em">Dropout</text></g><g><rect x="99.720000" y="2381.939000" width="170.000000" height="61.389000" rx="24.000000" ry="24.000000" fill="#006680" fill-opacity="1.00" /><rect x="104.720000" y="2386.939000" width="160.000000" height="51.389000" rx="20.000000" ry="20.000000" fill="#00ffff" fill-opacity="1.00" /><text x="184.720000" y="2411.939000" text-anchor="middle" fill="#000000" fill-opacity="1.00" font-size="30px" font-family="Ubuntu Light" dy=".3em">Dropout</text></g><g><rect x="99.720000" y="1469.389000" width="170.000000" height="61.389000" rx="24.000000" ry="24.000000" fill="#a47a4a" fill-opacity="1.00" /><rect x="104.720000" y="1474.389000" width="160.000000" height="51.389000" rx="20.000000" ry="20.000000" fill="#cd8a63" fill-opacity="0.89" /><text x="184.720000" y="1499.389000" text-anchor="middle" fill="#ffffff" fill-opacity="1.00" font-size="30px" font-family="Ubuntu Light" dy=".3em">Flatten</text></g><g><rect x="119.720000" y="556.989000" width="130.000000" height="61.389000" rx="24.000000" ry="24.000000" fill="#808000" fill-opacity="0.67" /><rect x="124.720000" y="561.989000" width="120.000000" height="51.389000" rx="20.000000" ry="20.000000" fill="#ffff00" fill-opacity="1.00" /><text x="184.720000" y="586.989000" text-anchor="middle" fill="#000000" fill-opacity="1.00" font-size="30px" font-family="Ubuntu Light" dy=".3em">Bnorm</text></g><path stroke-width="4" d="M184.720000,212.778000 C 184.720000 239.789000, 184.720000 212.778000, 184.720000 239.789000" stroke="black" fill="none" marker-end="url(#arrow)" /><text x="189.720000" y="222.778000" text-anchor="start" alignment-baseline="hanging" fill="#000000" font-size="20px" font-family="Ubuntu Light" dy=".3em">(28, 28, 1)</text><path stroke-width="4" d="M184.720000,314.178000 C 184.720000 341.189000, 184.720000 314.178000, 184.720000 341.189000" stroke="black" fill="none" marker-end="url(#arrow)" /><text x="189.720000" y="324.178000" text-anchor="start" alignment-baseline="hanging" fill="#000000" font-size="20px" font-family="Ubuntu Light" dy=".3em">(24, 24, 64)</text><path stroke-width="4" d="M184.720000,415.578000 C 184.720000 442.589000, 184.720000 415.578000, 184.720000 442.589000" stroke="black" fill="none" marker-end="url(#arrow)" /><text x="189.720000" y="324.178000" text-anchor="start" alignment-baseline="hanging" fill="#000000" font-size="20px" font-family="Ubuntu Light" dy=".3em">(24, 24, 64)</text><path stroke-width="4" d="M184.720000,516.978000 C 184.720000 543.989000, 184.720000 516.978000, 184.720000 543.989000" stroke="black" fill="none" marker-end="url(#arrow)" /><text x="189.720000" y="324.178000" text-anchor="start" alignment-baseline="hanging" fill="#000000" font-size="20px" font-family="Ubuntu Light" dy=".3em">(24, 24, 64)</text><path stroke-width="4" d="M184.720000,618.378000 C 184.720000 645.289000, 184.720000 618.378000, 184.720000 645.289000" stroke="black" fill="none" marker-end="url(#arrow)" /><text x="189.720000" y="324.178000" text-anchor="start" alignment-baseline="hanging" fill="#000000" font-size="20px" font-family="Ubuntu Light" dy=".3em">(24, 24, 64)</text><path stroke-width="4" d="M184.720000,719.678000 C 184.720000 746.689000, 184.720000 719.678000, 184.720000 746.689000" stroke="black" fill="none" marker-end="url(#arrow)" /><text x="189.720000" y="729.678000" text-anchor="start" alignment-baseline="hanging" fill="#000000" font-size="20px" font-family="Ubuntu Light" dy=".3em">(20, 20, 128)</text><path stroke-width="4" d="M184.720000,821.078000 C 184.720000 848.089000, 184.720000 821.078000, 184.720000 848.089000" stroke="black" fill="none" marker-end="url(#arrow)" /><text x="189.720000" y="729.678000" text-anchor="start" alignment-baseline="hanging" fill="#000000" font-size="20px" font-family="Ubuntu Light" dy=".3em">(20, 20, 128)</text><path stroke-width="4" d="M184.720000,922.478000 C 184.720000 949.489000, 184.720000 922.478000, 184.720000 949.489000" stroke="black" fill="none" marker-end="url(#arrow)" /><text x="189.720000" y="729.678000" text-anchor="start" alignment-baseline="hanging" fill="#000000" font-size="20px" font-family="Ubuntu Light" dy=".3em">(20, 20, 128)</text><path stroke-width="4" d="M184.720000,1023.878000 C 184.720000 1050.889000, 184.720000 1023.878000, 184.720000 1050.889000" stroke="black" fill="none" marker-end="url(#arrow)" /><text x="189.720000" y="729.678000" text-anchor="start" alignment-baseline="hanging" fill="#000000" font-size="20px" font-family="Ubuntu Light" dy=".3em">(20, 20, 128)</text><path stroke-width="4" d="M184.720000,1125.278000 C 184.720000 1152.289000, 184.720000 1125.278000, 184.720000 1152.289000" stroke="black" fill="none" marker-end="url(#arrow)" /><text x="189.720000" y="1135.278000" text-anchor="start" alignment-baseline="hanging" fill="#000000" font-size="20px" font-family="Ubuntu Light" dy=".3em">(18, 18, 256)</text><path stroke-width="4" d="M184.720000,1226.678000 C 184.720000 1253.689000, 184.720000 1226.678000, 184.720000 1253.689000" stroke="black" fill="none" marker-end="url(#arrow)" /><text x="189.720000" y="1135.278000" text-anchor="start" alignment-baseline="hanging" fill="#000000" font-size="20px" font-family="Ubuntu Light" dy=".3em">(18, 18, 256)</text><path stroke-width="4" d="M184.720000,1328.078000 C 184.720000 1355.089000, 184.720000 1328.078000, 184.720000 1355.089000" stroke="black" fill="none" marker-end="url(#arrow)" /><text x="189.720000" y="1135.278000" text-anchor="start" alignment-baseline="hanging" fill="#000000" font-size="20px" font-family="Ubuntu Light" dy=".3em">(18, 18, 256)</text><path stroke-width="4" d="M184.720000,1429.478000 C 184.720000 1456.389000, 184.720000 1429.478000, 184.720000 1456.389000" stroke="black" fill="none" marker-end="url(#arrow)" /><text x="189.720000" y="1135.278000" text-anchor="start" alignment-baseline="hanging" fill="#000000" font-size="20px" font-family="Ubuntu Light" dy=".3em">(18, 18, 256)</text><path stroke-width="4" d="M184.720000,1530.778000 C 184.720000 1557.789000, 184.720000 1530.778000, 184.720000 1557.789000" stroke="black" fill="none" marker-end="url(#arrow)" /><text x="189.720000" y="1540.778000" text-anchor="start" alignment-baseline="hanging" fill="#000000" font-size="20px" font-family="Ubuntu Light" dy=".3em">(82944,)</text><path stroke-width="4" d="M184.720000,1632.178000 C 184.720000 1659.189000, 184.720000 1632.178000, 184.720000 1659.189000" stroke="black" fill="none" marker-end="url(#arrow)" /><text x="189.720000" y="1642.178000" text-anchor="start" alignment-baseline="hanging" fill="#000000" font-size="20px" font-family="Ubuntu Light" dy=".3em">(512,)</text><path stroke-width="4" d="M184.720000,1733.578000 C 184.720000 1760.589000, 184.720000 1733.578000, 184.720000 1760.589000" stroke="black" fill="none" marker-end="url(#arrow)" /><text x="189.720000" y="1642.178000" text-anchor="start" alignment-baseline="hanging" fill="#000000" font-size="20px" font-family="Ubuntu Light" dy=".3em">(512,)</text><path stroke-width="4" d="M184.720000,1834.978000 C 184.720000 1861.999000, 184.720000 1834.978000, 184.720000 1861.999000" stroke="black" fill="none" marker-end="url(#arrow)" /><text x="189.720000" y="1642.178000" text-anchor="start" alignment-baseline="hanging" fill="#000000" font-size="20px" font-family="Ubuntu Light" dy=".3em">(512,)</text><path stroke-width="4" d="M184.720000,1936.388000 C 184.720000 1963.379000, 184.720000 1936.388000, 184.720000 1963.379000" stroke="black" fill="none" marker-end="url(#arrow)" /><text x="189.720000" y="1946.388000" text-anchor="start" alignment-baseline="hanging" fill="#000000" font-size="20px" font-family="Ubuntu Light" dy=".3em">(256,)</text><path stroke-width="4" d="M184.720000,2037.768000 C 184.720000 2064.769000, 184.720000 2037.768000, 184.720000 2064.769000" stroke="black" fill="none" marker-end="url(#arrow)" /><text x="189.720000" y="1946.388000" text-anchor="start" alignment-baseline="hanging" fill="#000000" font-size="20px" font-family="Ubuntu Light" dy=".3em">(256,)</text><path stroke-width="4" d="M184.720000,2139.158000 C 184.720000 2166.159000, 184.720000 2139.158000, 184.720000 2166.159000" stroke="black" fill="none" marker-end="url(#arrow)" /><text x="189.720000" y="1946.388000" text-anchor="start" alignment-baseline="hanging" fill="#000000" font-size="20px" font-family="Ubuntu Light" dy=".3em">(256,)</text><path stroke-width="4" d="M184.720000,2240.548000 C 184.720000 2267.549000, 184.720000 2240.548000, 184.720000 2267.549000" stroke="black" fill="none" marker-end="url(#arrow)" /><text x="189.720000" y="2250.548000" text-anchor="start" alignment-baseline="hanging" fill="#000000" font-size="20px" font-family="Ubuntu Light" dy=".3em">(128,)</text><path stroke-width="4" d="M184.720000,2341.938000 C 184.720000 2368.939000, 184.720000 2341.938000, 184.720000 2368.939000" stroke="black" fill="none" marker-end="url(#arrow)" /><text x="189.720000" y="2250.548000" text-anchor="start" alignment-baseline="hanging" fill="#000000" font-size="20px" font-family="Ubuntu Light" dy=".3em">(128,)</text><path stroke-width="4" d="M184.720000,2443.328000 C 184.720000 2470.329000, 184.720000 2443.328000, 184.720000 2470.329000" stroke="black" fill="none" marker-end="url(#arrow)" /><text x="189.720000" y="2250.548000" text-anchor="start" alignment-baseline="hanging" fill="#000000" font-size="20px" font-family="Ubuntu Light" dy=".3em">(128,)</text><path stroke-width="4" d="M184.720000,2544.718000 C 184.720000 2571.719000, 184.720000 2544.718000, 184.720000 2571.719000" stroke="black" fill="none" marker-end="url(#arrow)" /><text x="189.720000" y="2554.718000" text-anchor="start" alignment-baseline="hanging" fill="#000000" font-size="20px" font-family="Ubuntu Light" dy=".3em">(64,)</text><path stroke-width="4" d="M184.720000,2646.108000 C 184.720000 2673.109000, 184.720000 2646.108000, 184.720000 2673.109000" stroke="black" fill="none" marker-end="url(#arrow)" /><text x="189.720000" y="2554.718000" text-anchor="start" alignment-baseline="hanging" fill="#000000" font-size="20px" font-family="Ubuntu Light" dy=".3em">(64,)</text><path stroke-width="4" d="M184.720000,2747.498000 C 184.720000 2774.495000, 184.720000 2747.498000, 184.720000 2774.495000" stroke="black" fill="none" marker-end="url(#arrow)" /><text x="189.720000" y="2554.718000" text-anchor="start" alignment-baseline="hanging" fill="#000000" font-size="20px" font-family="Ubuntu Light" dy=".3em">(64,)</text><text x="184.720000" y="2858.884000" text-anchor="middle" alignment-baseline="hanging" fill="#000000" font-size="20px" font-family="Ubuntu Light" dy=".3em">(10,)</text></svg>