<svg viewBox="-4 100 220 790"><defs><marker id="arrow" markerWidth="10" markerHeight="10" refX="0" refY="3" orient="auto" markerUnits="strokeWidth"> <path d="M0,1.5 L0,4.5 L3.5,3 z" fill="#000000" /> </marker> </defs><g><rect x="25.278000" y="151.389000" width="130.000000" height="61.389000" rx="24.000000" ry="24.000000" fill="#4d4d4d" fill-opacity="0.66" /><rect x="30.278000" y="156.389000" width="120.000000" height="51.389000" rx="20.000000" ry="20.000000" fill="#acacac" fill-opacity="0.89" /><text x="90.278000" y="181.389000" text-anchor="middle" fill="#ffffff" fill-opacity="1.00" font-size="30px" font-family="Ubuntu Light" dy=".3em">Input</text></g><g><rect x="5.278000" y="658.339000" width="170.000000" height="61.389000" rx="24.000000" ry="24.000000" fill="#540023" fill-opacity="0.66" /><rect x="10.278000" y="663.339000" width="160.000000" height="51.389000" rx="20.000000" ry="20.000000" fill="#d42068" fill-opacity="0.89" /><text x="90.278000" y="688.339000" text-anchor="middle" fill="#ffffff" fill-opacity="1.00" font-size="30px" font-family="Ubuntu Light" dy=".3em">Dense32</text></g><g><rect x="5.278000" y="455.559000" width="170.000000" height="61.389000" rx="24.000000" ry="24.000000" fill="#a47a4a" fill-opacity="1.00" /><rect x="10.278000" y="460.559000" width="160.000000" height="51.389000" rx="20.000000" ry="20.000000" fill="#cd8a63" fill-opacity="0.89" /><text x="90.278000" y="485.559000" text-anchor="middle" fill="#ffffff" fill-opacity="1.00" font-size="30px" font-family="Ubuntu Light" dy=".3em">Flatten</text></g><g><rect x="15.278000" y="759.725000" width="150.000000" height="61.389000" rx="24.000000" ry="24.000000" fill="#540023" fill-opacity="0.66" /><rect x="20.278000" y="764.725000" width="140.000000" height="51.389000" rx="20.000000" ry="20.000000" fill="#d42068" fill-opacity="0.89" /><text x="90.278000" y="789.725000" text-anchor="middle" fill="#ffffff" fill-opacity="1.00" font-size="30px" font-family="Ubuntu Light" dy=".3em">Dense1</text></g><g><rect x="-4.722000" y="556.949000" width="190.000000" height="61.389000" rx="24.000000" ry="24.000000" fill="#540023" fill-opacity="0.66" /><rect x="0.278000" y="561.949000" width="180.000000" height="51.389000" rx="20.000000" ry="20.000000" fill="#d42068" fill-opacity="0.89" /><text x="90.278000" y="586.949000" text-anchor="middle" fill="#ffffff" fill-opacity="1.00" font-size="30px" font-family="Ubuntu Light" dy=".3em">Dense128</text></g><g><rect x="15.278000" y="252.779000" width="150.000000" height="70.000000" rx="24.000000" ry="24.000000" fill="#5151c0" fill-opacity="1.00" /><rect x="20.278000" y="257.779000" width="140.000000" height="60.000000" rx="20.000000" ry="20.000000" fill="#2a7fff" fill-opacity="1.00" /><text x="90.278000" y="273.779000" text-anchor="middle" fill="#ffffff" fill-opacity="1.00" font-size="30px" font-family="Ubuntu Light" font-weight="normal" dy=".3em">Conv2D</text><text x="90.278000" y="301.779000" text-anchor="middle" fill="#ffffff" fill-opacity="1.00" font-size="20px" font-family="Ubuntu Light" dy=".3em">(3, 3) x 64</text></g><g><rect x="10.278000" y="354.169000" width="160.000000" height="70.000000" rx="24.000000" ry="24.000000" fill="#5151c0" fill-opacity="1.00" /><rect x="15.278000" y="359.169000" width="150.000000" height="60.000000" rx="20.000000" ry="20.000000" fill="#2a7fff" fill-opacity="1.00" /><text x="90.278000" y="375.169000" text-anchor="middle" fill="#ffffff" fill-opacity="1.00" font-size="30px" font-family="Ubuntu Light" font-weight="normal" dy=".3em">Conv2D</text><text x="90.278000" y="403.169000" text-anchor="middle" fill="#ffffff" fill-opacity="1.00" font-size="20px" font-family="Ubuntu Light" dy=".3em">(5, 5, 64) x 128</text></g><path stroke-width="4" d="M90.278000,212.778000 C 90.278000 239.779000, 90.278000 212.778000, 90.278000 239.779000" stroke="black" fill="none" marker-end="url(#arrow)" /><text x="95.278000" y="222.778000" text-anchor="start" alignment-baseline="hanging" fill="#000000" font-size="20px" font-family="Ubuntu Light" dy=".3em">(100, 100, 1)</text><path stroke-width="4" d="M90.278000,322.779000 C 90.278000 341.169000, 90.278000 322.779000, 90.278000 341.169000" stroke="black" fill="none" marker-end="url(#arrow)" /><text x="95.278000" y="332.779000" text-anchor="start" alignment-baseline="hanging" fill="#000000" font-size="20px" font-family="Ubuntu Light" dy=".3em">(98, 98, 64)</text><path stroke-width="4" d="M90.278000,424.169000 C 90.278000 442.559000, 90.278000 424.169000, 90.278000 442.559000" stroke="black" fill="none" marker-end="url(#arrow)" /><text x="95.278000" y="434.169000" text-anchor="start" alignment-baseline="hanging" fill="#000000" font-size="20px" font-family="Ubuntu Light" dy=".3em">(94, 94, 128)</text><path stroke-width="4" d="M90.278000,516.948000 C 90.278000 543.949000, 90.278000 516.948000, 90.278000 543.949000" stroke="black" fill="none" marker-end="url(#arrow)" /><text x="95.278000" y="526.948000" text-anchor="start" alignment-baseline="hanging" fill="#000000" font-size="20px" font-family="Ubuntu Light" dy=".3em">(1131008,)</text><path stroke-width="4" d="M90.278000,618.338000 C 90.278000 645.339000, 90.278000 618.338000, 90.278000 645.339000" stroke="black" fill="none" marker-end="url(#arrow)" /><text x="95.278000" y="628.338000" text-anchor="start" alignment-baseline="hanging" fill="#000000" font-size="20px" font-family="Ubuntu Light" dy=".3em">(128,)</text><path stroke-width="4" d="M90.278000,719.728000 C 90.278000 746.725000, 90.278000 719.728000, 90.278000 746.725000" stroke="black" fill="none" marker-end="url(#arrow)" /><text x="95.278000" y="729.728000" text-anchor="start" alignment-baseline="hanging" fill="#000000" font-size="20px" font-family="Ubuntu Light" dy=".3em">(32,)</text><text x="90.278000" y="831.114000" text-anchor="middle" alignment-baseline="hanging" fill="#000000" font-size="20px" font-family="Ubuntu Light" dy=".3em">(1,)</text></svg>